<?xml version="1.0" encoding="utf-8"?>
<!-- Generator: Adobe Illustrator 15.1.0, SVG Export Plug-In . SVG Version: 6.00 Build 0)  -->
<!DOCTYPE svg PUBLIC "-//W3C//DTD SVG 1.1//EN" "http://www.w3.org/Graphics/SVG/1.1/DTD/svg11.dtd">
<svg version="1.1" id="レイヤー_1" xmlns="http://www.w3.org/2000/svg" xmlns:xlink="http://www.w3.org/1999/xlink" x="0px"
	 y="0px" width="841.89px" height="595.281px" viewBox="0 0 841.89 595.281" enable-background="new 0 0 841.89 595.281"
	 xml:space="preserve">
<g>
	<path fill="#848585" d="M432.539,297.15c-0.834,0-1.639,0.079-2.412,0.215c0.34,2.589-0.963,5.794-7.107,8.626
		c1.195,2.883,5.004,4.992,9.521,4.992c5.477,0,9.918-3.099,9.918-6.916C442.458,300.248,438.017,297.15,432.539,297.15z"/>
	<path fill="#848585" d="M413.707,285.548c-1.417-0.583-2.834-0.834-2.834-0.834c-0.137-0.531-0.274-1.025-0.412-1.502
		c-3.214,1.926-5.274,4.867-5.274,8.169c0,5.799,6.342,10.5,14.167,10.5c4.345,0,8.228-1.453,10.825-3.732
		c0.016-3.261-2.807-5.767-2.807-5.767c0.166-1.667,0-6.833,0-6.833c-0.223-1.365-0.469-2.388-0.723-3.155
		c-1.266-0.565-2.652-0.989-4.137-1.24C419.311,282.483,413.707,285.548,413.707,285.548z"/>
	<path fill="none" stroke="#512F20" stroke-width="2" stroke-miterlimit="10" d="M413.707,285.548c0,0,8.832-4.833,10.666-5
		c0,0,1.834-2.166,3,5c0,0,0.166,5.166,0,6.833c0,0,8.834,7.833-4.832,13.833c0,0-22,0.832-27.667-2.834c0,0-21.5-8.333,0-20.5
		l10.167-8.167c0,0,1.752,0,2.709,1.667c0,0,1.624,2.5,3.124,8.333C410.873,284.714,412.29,284.965,413.707,285.548z"/>
	<path fill="#848585" d="M397.465,305.244c-0.973,0.815-2.877,2.338-4.707,3.354c0.493,1.035,1.806,1.781,3.365,1.781
		c1.979,0,3.583-1.195,3.583-2.668C399.707,306.593,398.778,305.638,397.465,305.244z"/>
	<path fill="none" stroke="#512F20" stroke-width="2" stroke-miterlimit="10" d="M398.126,304.673c0,0-4.549,4.082-7.463,4.832
		c0,0-6.415,3.125,0.71,6c0,0,11.128,1.318,15.507-4l-5.132,6c0,0-4,7.125,9.125,3.625c0,0,3-1.375,3.625-2s2.504-4,10.064-1.375
		c0,0,8.598,4,15.953,0.875c0,0,1.611-0.25,3.172,1.25s5.936,2.75,8.436,1.25c0,0,2.125-1.5-1.875-5l-2.875-2.744
		c0,0,1.117-17.239-17.191-16.997"/>
	<path fill="none" stroke="#512F20" stroke-width="2" stroke-miterlimit="10" d="M426.382,318.457c0,0,5.41,8.035,7.139,1.354
		L426.382,318.457z"/>
	<path fill="#848585" d="M449.498,289.381c-1.459,0-2.797,0.429-3.848,1.14c-0.611,1.705-1.422,3.049-2.27,4.106
		c0.07,2.528,2.326,4.599,5.25,4.947c3.455-1.596,5.549-2.862,6.773-3.73c0.139-0.427,0.219-0.874,0.219-1.338
		C455.623,291.675,452.88,289.381,449.498,289.381z"/>
	<path fill="none" stroke="#512F20" stroke-width="2" stroke-miterlimit="10" d="M439,298.074c0,0,6.748-2.443,7.623-12.068
		c0,0,1.875-10,10.375-4.5c0,0,4.25,4,0,13c0,0-2.119,2.736-13.311,7.182"/>
	<circle fill="#512F20" cx="394.427" cy="289.381" r="2"/>
	<circle fill="#512F20" cx="410.428" cy="292.771" r="2"/>
	<circle fill="#DD8267" cx="414.428" cy="299.574" r="2"/>
	<circle fill="#DD8267" cx="389.177" cy="292.771" r="2"/>
	<path fill="#512F20" d="M402.057,298.78c-0.649,0-1.196-0.174-1.631-0.522c-0.48-0.383-0.723-0.904-0.846-1.348
		c-1.721,1.005-3.223,0.133-3.832-0.558l0.748-0.663c0.139,0.154,1.408,1.461,3.131-0.044l0.861-0.752l-0.032,1.143
		c0,0.007-0.011,0.962,0.599,1.445c0.421,0.334,1.076,0.389,1.944,0.167l0.248,0.968C402.819,298.725,402.422,298.78,402.057,298.78
		z"/>
	<path fill="none" stroke="#512F20" stroke-miterlimit="10" d="M467.457,314.88c0,0,7.834-1.5,3.25,4.5c0,0,2.582,6.584-4.084,3.584
		c0,0-0.584,1.75-2.75,0.166c0,0-3.082,1-3.332-1.5c0,0-0.084-2.42,2.5-2.377c0,0-3.834-2.873-0.334-6.373
		C462.707,312.88,465.291,310.88,467.457,314.88z"/>
	<path fill="none" stroke="#512F20" stroke-miterlimit="10" d="M479.623,311.964c0,0-2.334-1.166-1-3.334c0,0,1.168-1.916,3.834,0
		c0,0,3-1.832,3.166,2c0,0,4.75,1.916,0,3.584c0,0,0.5,3.918-3.166,1.584c0,0-0.5,1.082-1.834,1.332c0,0-2.584-0.332-2-2.25
		C478.623,314.88,476.039,313.214,479.623,311.964z"/>
	<path fill="none" stroke="#512F20" stroke-miterlimit="10" d="M488.457,318.88c0,0,1.5-4,3.25,0c0,0,3.5,2.853-0.916,3.217
		c0,0-1.029,2.97-3.057,0C487.734,322.097,483.541,319.548,488.457,318.88z"/>
	<ellipse fill="#AABDC8" cx="437.582" cy="327.714" rx="19.209" ry="1.75"/>
	<ellipse fill="#AABDC8" cx="475.291" cy="327.84" rx="6.082" ry="0.958"/>
	<ellipse fill="#AABDC8" cx="487.806" cy="328.339" rx="1.738" ry="0.625"/>
</g>
<g>
	<g>
		
			<path fill="#FAEE00" stroke="#512F20" stroke-width="2" stroke-linecap="round" stroke-linejoin="bevel" stroke-miterlimit="10" d="
			M362.468,276.71c4.667,2.741,1.222,8.239,1.222,8.239s-3.12,4.172-8.317,4.035c0,0,3.848-0.708,4.835,2.073
			c0.987,2.779-5.043,0.408-6.499-1.421c0,0,0.832,2.019,0,2.694s-3.209,0.533-1.293-3.347c0,0-2.658-1.931-3.905-5.92
			c0,0-3.004-9.401,3.905-2.118C352.416,280.946,356.672,273.308,362.468,276.71z"/>
		
			<line fill="none" stroke="#512F20" stroke-width="2" stroke-linecap="round" stroke-linejoin="bevel" stroke-miterlimit="10" x1="352.416" y1="276.454" x2="352.898" y2="280.19"/>
		
			<line fill="none" stroke="#512F20" stroke-width="2" stroke-linecap="round" stroke-linejoin="bevel" stroke-miterlimit="10" x1="353.659" y1="275.952" x2="353.97" y2="278.653"/>
	</g>
	<path fill="#512F20" d="M368.305,287.313c-0.257,0-0.476-0.198-0.498-0.458c-0.023-0.275,0.182-0.517,0.457-0.54
		c2.36-0.196,5.841-0.998,6.191-2.166c0.13-0.436,0.131-1.088,0.132-1.779c0.001-1.393,0.003-2.971,1.086-3.761
		c0.784-0.573,1.969-0.594,3.62-0.069c3.884,1.239,4.252,0.619,4.716-0.166c0.158-0.267,0.336-0.569,0.615-0.85
		c0.2-0.201,0.106-1.148,0.039-1.839c-0.137-1.385-0.291-2.955,0.687-3.827c0.644-0.574,1.633-0.708,3.025-0.408
		c2.654,0.572,3.687,0.864,4.183,1.003c0.438,0.124,0.438,0.124,0.99,0.124c1.177,0,1.767,0,2.778-1.615
		c0.829-1.323,2.15-2.968,4.021-2.007c0.246,0.126,0.342,0.428,0.216,0.673c-0.127,0.245-0.427,0.342-0.673,0.216
		c-0.661-0.34-1.448-0.376-2.717,1.649c-1.217,1.943-2.182,2.083-3.626,2.083c-0.664,0-0.711-0.006-1.261-0.161
		c-0.486-0.137-1.499-0.422-4.122-0.988c-1.043-0.224-1.765-0.165-2.148,0.177c-0.598,0.534-0.47,1.834-0.357,2.982
		c0.111,1.131,0.208,2.107-0.325,2.643c-0.19,0.191-0.323,0.416-0.463,0.653c-0.745,1.264-1.559,1.988-5.881,0.611
		c-1.309-0.417-2.225-0.443-2.727-0.077c-0.674,0.492-0.675,1.8-0.676,2.955c-0.001,0.766-0.002,1.489-0.174,2.065
		c-0.67,2.236-6.004,2.788-7.067,2.876C368.333,287.313,368.318,287.313,368.305,287.313z"/>
	<g>
		<g>
			<path fill="#512F20" d="M402.399,270.283c-0.086,0-0.173-0.022-0.252-0.068c-0.302-0.177-0.481-0.331-0.481-0.331
				c-0.208-0.179-0.233-0.493-0.056-0.703c0.177-0.21,0.49-0.237,0.702-0.061c0.014,0.011,0.139,0.113,0.34,0.231
				c0.238,0.14,0.318,0.446,0.179,0.684C402.738,270.195,402.571,270.283,402.399,270.283z"/>
			<path fill="#512F20" d="M404.925,270.492c-0.184,0-0.36-0.102-0.448-0.277c-0.124-0.247-0.023-0.547,0.224-0.67
				c0.191-0.096,0.377-0.23,0.553-0.401l0.378,0.33l0.335,0.371c-0.267,0.259-0.537,0.454-0.82,0.595
				C405.076,270.476,405,270.492,404.925,270.492z M407.644,268.271c-0.176,0-0.347-0.093-0.438-0.258
				c-0.134-0.242-0.046-0.546,0.195-0.68c0.309-0.171,0.617-0.292,0.942-0.37c0.268-0.067,0.539,0.1,0.603,0.369
				c0.065,0.269-0.1,0.539-0.369,0.603c-0.237,0.057-0.463,0.146-0.692,0.273C407.809,268.25,407.726,268.271,407.644,268.271z"/>
			<path fill="#512F20" d="M411.542,268.364c-0.061,0-0.122-0.011-0.181-0.034c-0.155-0.06-0.304-0.113-0.448-0.161
				c-0.262-0.087-0.404-0.37-0.317-0.632c0.087-0.262,0.37-0.402,0.632-0.317c0.159,0.053,0.324,0.111,0.495,0.178
				c0.257,0.1,0.385,0.39,0.285,0.647C411.931,268.243,411.742,268.364,411.542,268.364z"/>
		</g>
	</g>
</g>
</svg>
