<?xml version="1.0" encoding="utf-8"?>
<!-- Generator: Adobe Illustrator 15.1.0, SVG Export Plug-In . SVG Version: 6.00 Build 0)  -->
<!DOCTYPE svg PUBLIC "-//W3C//DTD SVG 1.1//EN" "http://www.w3.org/Graphics/SVG/1.1/DTD/svg11.dtd">
<svg version="1.1" id="レイヤー_1" xmlns="http://www.w3.org/2000/svg" xmlns:xlink="http://www.w3.org/1999/xlink" x="0px"
	 y="0px" width="841.89px" height="595.28px" viewBox="0 0 841.89 595.28" enable-background="new 0 0 841.89 595.28"
	 xml:space="preserve">
<circle cx="420.5" cy="305.91" r="27.208"/>
<path d="M441.613,262.205c0,0-3.708,16.16-20.091,13.559C421.522,275.764,425.328,262.563,441.613,262.205z"/>
<g>
	<path fill="#FFFFFF" d="M410.396,308.629c-0.679,0-1.419-0.237-2.214-0.711l0.512-0.859c0.948,0.565,1.747,0.709,2.383,0.43
		c1.132-0.499,1.493-2.194,1.497-2.211l0.272-1.326l0.655,1.184c0.644,1.165,1.387,1.786,2.208,1.848
		c1.624,0.143,3.192-1.889,3.208-1.909l0.794,0.607c-0.077,0.1-1.901,2.448-4.073,2.3c-0.916-0.067-1.73-0.561-2.432-1.469
		c-0.302,0.674-0.834,1.497-1.721,1.89C411.142,308.554,410.778,308.629,410.396,308.629z"/>
	<circle fill="#FFFFFF" cx="402.813" cy="300.752" r="3.875"/>
	<circle fill="#FFFFFF" cx="424.063" cy="296.877" r="3.875"/>
</g>
</svg>
