<?xml version="1.0" encoding="utf-8"?>
<!-- Generator: Adobe Illustrator 15.1.0, SVG Export Plug-In . SVG Version: 6.00 Build 0)  -->
<!DOCTYPE svg PUBLIC "-//W3C//DTD SVG 1.1//EN" "http://www.w3.org/Graphics/SVG/1.1/DTD/svg11.dtd">
<svg version="1.1" id="レイヤー_1" xmlns="http://www.w3.org/2000/svg" xmlns:xlink="http://www.w3.org/1999/xlink" x="0px"
	 y="0px" width="841.89px" height="595.281px" viewBox="0 0 841.89 595.281" enable-background="new 0 0 841.89 595.281"
	 xml:space="preserve">
<g>
	<g>
		
			<radialGradient id="SVGID_1_" cx="134.6255" cy="324.1812" r="27.1964" gradientTransform="matrix(-4.371139e-008 1 1 4.371139e-008 205.6681 71.0502)" gradientUnits="userSpaceOnUse">
			<stop  offset="0" style="stop-color:#EC7079"/>
			<stop  offset="1" style="stop-color:#F29D9C"/>
		</radialGradient>
		<path fill="url(#SVGID_1_)" d="M531.193,232.412l3.301-4.783l5.48,1.931c0,0,4.527-8.9-4.381-17.904
			c11.314,5.693,18.381-1.363,18.381-1.363l-3.529-4.618l3.529-4.616c0,0-7.063-7.056-18.381-1.366
			c8.908-9.002,4.381-17.902,4.381-17.902l-5.48,1.93l-3.299-4.783c0,0-8.896,4.537-6.98,17.059
			c-5.811-11.256-15.674-9.699-15.674-9.699l0.145,5.81l-5.57,1.661c0,0,1.568,9.86,14.066,11.908
			c-12.498,2.047-14.066,11.909-14.066,11.909l5.57,1.66l-0.145,5.811c0,0,9.863,1.554,15.674-9.7
			C522.298,227.874,531.193,232.412,531.193,232.412z M527.359,207.673c-0.133,0-0.262-0.014-0.389-0.039l-1.666,5.135
			c0.391,0.239,0.582,0.721,0.436,1.175c-0.176,0.531-0.746,0.823-1.279,0.65c-0.533-0.174-0.824-0.746-0.65-1.278
			c0.148-0.453,0.586-0.729,1.041-0.694l1.672-5.138c-0.238-0.11-0.447-0.266-0.623-0.454l-4.371,3.176
			c0.174,0.423,0.049,0.925-0.338,1.206c-0.453,0.33-1.088,0.228-1.416-0.225c-0.33-0.453-0.229-1.087,0.223-1.417
			c0.387-0.28,0.902-0.245,1.25,0.051l4.375-3.178c-0.125-0.222-0.205-0.467-0.236-0.729h-5.406
			c-0.105,0.444-0.506,0.776-0.98,0.776c-0.563,0-1.016-0.456-1.016-1.016c0-0.561,0.453-1.013,1.016-1.013
			c0.477,0,0.875,0.331,0.98,0.774h5.406c0.031-0.264,0.111-0.509,0.236-0.73l-4.373-3.178c-0.35,0.296-0.867,0.33-1.252,0.05
			c-0.451-0.329-0.553-0.964-0.223-1.416c0.326-0.452,0.961-0.554,1.416-0.226c0.387,0.281,0.512,0.783,0.336,1.206l4.371,3.177
			c0.178-0.189,0.387-0.344,0.623-0.454l-1.668-5.138c-0.455,0.035-0.895-0.241-1.041-0.694c-0.174-0.532,0.117-1.104,0.65-1.277
			c0.531-0.173,1.104,0.118,1.277,0.65c0.146,0.454-0.045,0.935-0.436,1.175l1.668,5.134c0.123-0.024,0.254-0.038,0.385-0.038
			c0.135,0,0.264,0.014,0.389,0.038l1.668-5.134c-0.391-0.24-0.582-0.721-0.436-1.175c0.174-0.532,0.746-0.823,1.277-0.65
			c0.533,0.173,0.826,0.745,0.652,1.277c-0.148,0.454-0.586,0.729-1.043,0.694l-1.668,5.139c0.236,0.11,0.445,0.265,0.621,0.454
			l4.371-3.177c-0.174-0.423-0.047-0.925,0.338-1.205c0.455-0.328,1.09-0.229,1.416,0.225c0.33,0.451,0.23,1.086-0.225,1.416
			c-0.385,0.281-0.902,0.247-1.25-0.051l-4.375,3.179c0.125,0.222,0.207,0.467,0.238,0.729h5.408
			c0.105-0.444,0.506-0.774,0.982-0.774c0.559,0,1.014,0.452,1.014,1.013c0,0.56-0.455,1.016-1.014,1.016
			c-0.477,0-0.877-0.333-0.982-0.776h-5.406c-0.033,0.262-0.113,0.508-0.238,0.729l4.375,3.179c0.35-0.296,0.865-0.331,1.25-0.051
			c0.453,0.33,0.555,0.965,0.227,1.417c-0.33,0.453-0.967,0.554-1.416,0.225c-0.391-0.281-0.516-0.783-0.34-1.206l-4.371-3.176
			c-0.176,0.188-0.387,0.344-0.621,0.454l1.668,5.138c0.457-0.035,0.893,0.241,1.039,0.696c0.176,0.531-0.117,1.103-0.65,1.276
			c-0.531,0.173-1.104-0.12-1.275-0.65c-0.146-0.455,0.043-0.936,0.434-1.175l-1.666-5.135
			C527.621,207.659,527.492,207.673,527.359,207.673z"/>
		
			<radialGradient id="SVGID_2_" cx="134.627" cy="271.9478" r="27.1698" gradientTransform="matrix(-4.371139e-008 1 -1 -4.371139e-008 799.1882 71.0944)" gradientUnits="userSpaceOnUse">
			<stop  offset="0" style="stop-color:#EC7079"/>
			<stop  offset="1" style="stop-color:#F29D9C"/>
		</radialGradient>
		<path fill="url(#SVGID_2_)" d="M527.798,207.057c0.008-0.002,0.014-0.004,0.021-0.007c0.07-0.023,0.141-0.053,0.207-0.088
			c0.131-0.068,0.254-0.149,0.357-0.252c0.111-0.112,0.203-0.244,0.273-0.387c0.098-0.197,0.16-0.416,0.16-0.649
			c0-0.235-0.061-0.454-0.16-0.649c-0.072-0.144-0.162-0.276-0.275-0.387c-0.104-0.103-0.225-0.185-0.354-0.251
			c-0.068-0.035-0.139-0.065-0.211-0.09c-0.008-0.002-0.014-0.003-0.02-0.006c-0.072-0.023-0.145-0.042-0.225-0.053
			c-0.07-0.012-0.143-0.022-0.217-0.022c-0.072,0-0.145,0.011-0.215,0.022c-0.074,0.011-0.15,0.029-0.223,0.053
			c-0.006,0.001-0.014,0.004-0.02,0.006c-0.072,0.024-0.143,0.054-0.209,0.089c-0.131,0.066-0.252,0.149-0.354,0.251
			c-0.115,0.111-0.205,0.244-0.275,0.387c-0.1,0.196-0.162,0.415-0.162,0.65c0,0.233,0.063,0.452,0.162,0.649
			c0.07,0.143,0.16,0.275,0.273,0.388c0.104,0.102,0.223,0.183,0.355,0.251c0.066,0.035,0.137,0.064,0.209,0.089
			c0.008,0.002,0.014,0.004,0.02,0.006c0.074,0.023,0.146,0.042,0.225,0.053c0.07,0.012,0.143,0.022,0.215,0.022
			c0.074,0,0.146-0.011,0.217-0.022C527.654,207.099,527.726,207.08,527.798,207.057z"/>
	</g>
	<g>
		
			<radialGradient id="SVGID_3_" cx="147.7534" cy="236.4756" r="12.8984" gradientTransform="matrix(-4.371139e-008 1 1 4.371139e-008 205.6681 71.0502)" gradientUnits="userSpaceOnUse">
			<stop  offset="0" style="stop-color:#EC7079"/>
			<stop  offset="1" style="stop-color:#F29D9C"/>
		</radialGradient>
		<path fill="url(#SVGID_3_)" d="M442.781,231.483l1.563-2.269l2.602,0.916c0,0,2.146-4.222-2.076-8.491
			c5.365,2.7,8.717-0.646,8.717-0.646l-1.676-2.19l1.676-2.189c0,0-3.352-3.347-8.717-0.647c4.225-4.27,2.078-8.49,2.078-8.49
			l-2.602,0.915l-1.564-2.269c0,0-4.217,2.152-3.311,8.09c-2.756-5.338-7.434-4.601-7.434-4.601l0.066,2.756l-2.641,0.787
			c0,0,0.744,4.676,6.672,5.647c-5.928,0.972-6.672,5.647-6.672,5.647l2.641,0.787l-0.066,2.756c0,0,4.678,0.738,7.434-4.6
			C438.562,229.331,442.781,231.483,442.781,231.483z M440.962,219.751c-0.063,0-0.123-0.006-0.184-0.018l-0.789,2.435
			c0.184,0.112,0.273,0.341,0.205,0.557c-0.084,0.251-0.355,0.39-0.607,0.309c-0.252-0.082-0.391-0.354-0.309-0.606
			c0.07-0.215,0.277-0.346,0.494-0.329l0.793-2.438c-0.113-0.052-0.213-0.125-0.297-0.215l-2.072,1.507
			c0.082,0.2,0.023,0.438-0.16,0.571c-0.215,0.157-0.518,0.109-0.672-0.106c-0.156-0.215-0.109-0.515,0.105-0.672
			c0.184-0.133,0.428-0.116,0.594,0.024l2.072-1.508c-0.059-0.105-0.096-0.221-0.111-0.347h-2.563
			c-0.051,0.211-0.242,0.369-0.467,0.369c-0.268,0-0.482-0.216-0.482-0.481c0-0.265,0.215-0.479,0.482-0.479
			c0.227,0,0.416,0.156,0.467,0.366h2.563c0.016-0.124,0.055-0.241,0.111-0.347l-2.072-1.507c-0.166,0.142-0.41,0.157-0.594,0.023
			c-0.215-0.155-0.262-0.456-0.105-0.671c0.154-0.215,0.457-0.263,0.672-0.106c0.184,0.134,0.242,0.371,0.16,0.572l2.072,1.506
			c0.084-0.089,0.184-0.163,0.297-0.215l-0.793-2.438c-0.217,0.017-0.424-0.113-0.492-0.329c-0.084-0.252,0.057-0.523,0.307-0.605
			c0.254-0.082,0.523,0.056,0.607,0.309c0.068,0.216-0.023,0.443-0.205,0.557l0.789,2.436c0.059-0.012,0.119-0.019,0.184-0.019
			s0.123,0.006,0.186,0.019l0.789-2.436c-0.186-0.113-0.275-0.341-0.205-0.557c0.084-0.252,0.354-0.391,0.605-0.309
			s0.391,0.354,0.311,0.605c-0.07,0.216-0.279,0.347-0.496,0.329l-0.791,2.438c0.111,0.052,0.213,0.126,0.295,0.215l2.072-1.506
			c-0.082-0.2-0.021-0.438,0.162-0.572c0.215-0.155,0.516-0.108,0.672,0.107c0.154,0.214,0.107,0.515-0.107,0.671
			c-0.182,0.133-0.428,0.117-0.592-0.023l-2.076,1.507c0.059,0.104,0.1,0.222,0.113,0.346h2.563c0.051-0.21,0.24-0.366,0.467-0.366
			c0.266,0,0.48,0.214,0.48,0.479c0,0.265-0.215,0.481-0.48,0.481c-0.227,0-0.416-0.157-0.467-0.369H441.9
			c-0.016,0.125-0.055,0.241-0.113,0.347l2.076,1.508c0.164-0.141,0.408-0.157,0.592-0.024c0.215,0.157,0.262,0.458,0.105,0.672
			c-0.154,0.216-0.455,0.264-0.672,0.106c-0.184-0.133-0.242-0.371-0.16-0.571l-2.074-1.507c-0.082,0.09-0.184,0.163-0.293,0.215
			l0.791,2.438c0.217-0.017,0.424,0.114,0.494,0.33c0.082,0.252-0.057,0.523-0.311,0.605c-0.252,0.081-0.521-0.057-0.604-0.309
			c-0.07-0.216,0.021-0.444,0.205-0.557l-0.791-2.435C441.087,219.745,441.025,219.751,440.962,219.751z"/>
		
			<radialGradient id="SVGID_4_" cx="147.7319" cy="358.2817" r="12.8813" gradientTransform="matrix(-4.371139e-008 1 -1 -4.371139e-008 799.1882 71.0944)" gradientUnits="userSpaceOnUse">
			<stop  offset="0" style="stop-color:#EC7079"/>
			<stop  offset="1" style="stop-color:#F29D9C"/>
		</radialGradient>
		<path fill="url(#SVGID_4_)" d="M441.171,219.459c0.002-0.001,0.006-0.002,0.01-0.003c0.033-0.012,0.066-0.025,0.1-0.042
			c0.063-0.032,0.119-0.07,0.168-0.119c0.055-0.054,0.098-0.116,0.131-0.184c0.047-0.094,0.076-0.196,0.076-0.308
			c0-0.112-0.029-0.216-0.076-0.308c-0.033-0.068-0.076-0.131-0.131-0.185c-0.049-0.048-0.105-0.087-0.168-0.119
			c-0.031-0.017-0.064-0.03-0.102-0.043c-0.002,0-0.006-0.001-0.008-0.002c-0.033-0.011-0.068-0.021-0.104-0.025
			c-0.035-0.005-0.068-0.01-0.105-0.01c-0.033,0-0.068,0.005-0.102,0.01c-0.035,0.005-0.07,0.015-0.105,0.025
			c-0.002,0-0.006,0.002-0.01,0.002c-0.033,0.012-0.066,0.025-0.098,0.043c-0.063,0.032-0.119,0.07-0.17,0.119
			c-0.053,0.053-0.098,0.115-0.131,0.184c-0.047,0.093-0.076,0.197-0.076,0.309c0,0.112,0.029,0.214,0.076,0.308
			c0.033,0.067,0.076,0.131,0.131,0.184c0.051,0.049,0.107,0.087,0.168,0.119c0.031,0.018,0.066,0.031,0.1,0.043
			c0.004,0.001,0.006,0.001,0.01,0.003c0.035,0.01,0.07,0.02,0.105,0.024c0.033,0.006,0.068,0.011,0.102,0.011
			c0.037,0,0.07-0.005,0.105-0.011C441.103,219.479,441.136,219.47,441.171,219.459z"/>
	</g>
	<g>
		
			<radialGradient id="SVGID_5_" cx="148.4399" cy="290.644" r="18.2519" gradientTransform="matrix(-4.371139e-008 1 1 4.371139e-008 205.6681 71.0502)" gradientUnits="userSpaceOnUse">
			<stop  offset="0" style="stop-color:#ED7890"/>
			<stop  offset="1" style="stop-color:#F3A5B3"/>
		</radialGradient>
		<path fill="url(#SVGID_5_)" d="M497.212,237.434l2.215-3.21l3.678,1.296c0,0,3.039-5.973-2.938-12.015
			c7.592,3.819,12.334-0.916,12.334-0.916l-2.369-3.099l2.369-3.098c0,0-4.74-4.735-12.334-0.918
			c5.979-6.04,2.939-12.014,2.939-12.014l-3.68,1.295l-2.215-3.209c0,0-5.969,3.046-4.684,11.447
			c-3.896-7.554-10.518-6.509-10.518-6.509l0.096,3.899l-3.736,1.114c0,0,1.053,6.616,9.441,7.991
			c-8.389,1.373-9.441,7.99-9.441,7.99l3.736,1.114l-0.096,3.9c0,0,6.619,1.041,10.518-6.51
			C491.244,234.389,497.212,237.434,497.212,237.434z M494.64,220.832c-0.09,0-0.176-0.01-0.262-0.025l-1.119,3.444
			c0.264,0.161,0.393,0.483,0.291,0.788c-0.115,0.357-0.498,0.553-0.855,0.437c-0.357-0.115-0.555-0.5-0.438-0.857
			c0.102-0.305,0.393-0.488,0.699-0.466l1.121-3.448c-0.16-0.074-0.301-0.178-0.418-0.304l-2.934,2.13
			c0.115,0.284,0.031,0.621-0.229,0.81c-0.303,0.222-0.73,0.153-0.951-0.15c-0.221-0.303-0.152-0.729,0.15-0.951
			c0.262-0.188,0.604-0.165,0.84,0.035l2.936-2.134c-0.084-0.147-0.137-0.313-0.158-0.489h-3.629
			c-0.07,0.299-0.34,0.521-0.656,0.521c-0.377,0-0.684-0.307-0.684-0.682c0-0.377,0.307-0.681,0.684-0.681
			c0.318,0,0.586,0.222,0.656,0.52h3.629c0.021-0.176,0.074-0.341,0.158-0.489l-2.934-2.133c-0.236,0.198-0.58,0.221-0.84,0.032
			c-0.303-0.22-0.371-0.645-0.152-0.949c0.221-0.303,0.648-0.371,0.951-0.151c0.26,0.189,0.344,0.526,0.229,0.81l2.934,2.132
			c0.117-0.127,0.258-0.23,0.418-0.305l-1.119-3.448c-0.307,0.024-0.6-0.163-0.699-0.466c-0.117-0.357,0.078-0.741,0.438-0.857
			c0.357-0.117,0.738,0.079,0.855,0.436c0.1,0.306-0.029,0.629-0.291,0.789l1.119,3.445c0.084-0.017,0.17-0.026,0.258-0.026
			c0.09,0,0.178,0.01,0.262,0.026l1.119-3.445c-0.262-0.16-0.391-0.483-0.291-0.789c0.115-0.357,0.498-0.553,0.855-0.436
			c0.359,0.116,0.555,0.5,0.438,0.857c-0.098,0.305-0.393,0.49-0.697,0.466l-1.119,3.448c0.156,0.074,0.299,0.178,0.416,0.305
			l2.934-2.132c-0.117-0.283-0.031-0.62,0.229-0.809c0.305-0.221,0.729-0.152,0.951,0.151c0.219,0.304,0.152,0.729-0.152,0.95
			c-0.258,0.188-0.605,0.165-0.838-0.034l-2.938,2.133c0.084,0.148,0.141,0.313,0.16,0.489h3.627c0.072-0.298,0.34-0.52,0.66-0.52
			c0.375,0,0.68,0.304,0.68,0.681c0,0.375-0.305,0.682-0.68,0.682c-0.32,0-0.586-0.224-0.66-0.521h-3.627
			c-0.021,0.176-0.076,0.341-0.158,0.489l2.934,2.134c0.232-0.2,0.582-0.223,0.84-0.035c0.305,0.222,0.371,0.647,0.15,0.951
			c-0.221,0.305-0.646,0.371-0.949,0.15c-0.26-0.188-0.346-0.525-0.229-0.81l-2.934-2.13c-0.119,0.127-0.26,0.229-0.416,0.304
			l1.119,3.448c0.307-0.023,0.598,0.161,0.697,0.467c0.117,0.356-0.078,0.74-0.438,0.856c-0.357,0.116-0.74-0.08-0.855-0.437
			c-0.1-0.305,0.029-0.628,0.291-0.788l-1.119-3.445C494.816,220.822,494.728,220.832,494.64,220.832z"/>
		
			<radialGradient id="SVGID_6_" cx="148.4282" cy="304.6274" r="18.2271" gradientTransform="matrix(-4.371139e-008 1 -1 -4.371139e-008 799.1882 71.0944)" gradientUnits="userSpaceOnUse">
			<stop  offset="0" style="stop-color:#ED7890"/>
			<stop  offset="1" style="stop-color:#F3A5B3"/>
		</radialGradient>
		<path fill="url(#SVGID_6_)" d="M494.935,220.419c0.004-0.001,0.01-0.003,0.014-0.004c0.049-0.017,0.096-0.036,0.141-0.06
			c0.086-0.045,0.17-0.101,0.238-0.169c0.076-0.076,0.137-0.164,0.184-0.26c0.066-0.132,0.107-0.279,0.107-0.437
			c0-0.158-0.041-0.304-0.107-0.435c-0.047-0.098-0.107-0.186-0.186-0.261c-0.066-0.068-0.15-0.123-0.236-0.168
			c-0.045-0.023-0.092-0.043-0.141-0.06c-0.004-0.001-0.01-0.003-0.014-0.004c-0.049-0.015-0.098-0.028-0.148-0.035
			c-0.049-0.007-0.096-0.015-0.146-0.015s-0.098,0.008-0.145,0.015c-0.051,0.008-0.102,0.021-0.148,0.035
			c-0.004,0-0.01,0.003-0.016,0.004c-0.049,0.017-0.094,0.035-0.139,0.06c-0.086,0.045-0.17,0.1-0.238,0.168
			c-0.076,0.075-0.139,0.164-0.188,0.261c-0.066,0.132-0.105,0.278-0.105,0.437c0,0.157,0.039,0.304,0.105,0.436
			c0.049,0.097,0.109,0.187,0.186,0.26c0.07,0.068,0.15,0.123,0.238,0.169c0.045,0.023,0.092,0.043,0.141,0.061
			c0.004,0.001,0.008,0.002,0.014,0.003c0.049,0.016,0.098,0.028,0.148,0.036c0.049,0.008,0.096,0.015,0.146,0.015
			c0.049,0,0.098-0.008,0.146-0.015C494.837,220.446,494.886,220.435,494.935,220.419z"/>
	</g>
	<g>
		
			<radialGradient id="SVGID_7_" cx="179.1919" cy="334.1401" r="14.042" gradientTransform="matrix(-4.371139e-008 1 1 4.371139e-008 205.6681 71.0502)" gradientUnits="userSpaceOnUse">
			<stop  offset="0" style="stop-color:#EA608D"/>
			<stop  offset="1" style="stop-color:#EF8CB0"/>
		</radialGradient>
		<path fill="url(#SVGID_7_)" d="M540.501,264.047l1.705-2.47l2.83,0.998c0,0,2.338-4.595-2.262-9.245
			c5.842,2.939,9.488-0.704,9.488-0.704l-1.82-2.384l1.82-2.384c0,0-3.646-3.644-9.488-0.706c4.6-4.646,2.264-9.243,2.264-9.243
			l-2.83,0.997l-1.705-2.47c0,0-4.594,2.343-3.604,8.808c-3-5.812-8.094-5.008-8.094-5.008l0.076,3l-2.877,0.857
			c0,0,0.811,5.091,7.264,6.148c-6.453,1.057-7.264,6.148-7.264,6.148l2.877,0.856l-0.076,3.001c0,0,5.094,0.802,8.094-5.009
			C535.91,261.704,540.501,264.047,540.501,264.047z M538.523,251.274c-0.068,0-0.135-0.008-0.201-0.021l-0.859,2.65
			c0.201,0.123,0.301,0.371,0.227,0.606c-0.092,0.274-0.387,0.426-0.662,0.336c-0.273-0.089-0.426-0.385-0.336-0.66
			c0.076-0.234,0.303-0.377,0.539-0.358l0.861-2.653c-0.125-0.057-0.232-0.137-0.322-0.234l-2.258,1.64
			c0.092,0.218,0.025,0.479-0.176,0.623c-0.232,0.17-0.561,0.118-0.729-0.115c-0.17-0.234-0.117-0.562,0.115-0.731
			c0.199-0.146,0.467-0.128,0.646,0.025l2.258-1.64c-0.064-0.115-0.105-0.241-0.123-0.377h-2.791
			c-0.055,0.229-0.262,0.401-0.508,0.401c-0.289,0-0.523-0.236-0.523-0.524c0-0.29,0.234-0.523,0.523-0.523
			c0.246,0,0.453,0.171,0.508,0.4h2.791c0.018-0.136,0.059-0.263,0.123-0.378l-2.258-1.64c-0.18,0.152-0.445,0.17-0.646,0.025
			c-0.232-0.17-0.285-0.497-0.115-0.73s0.496-0.286,0.729-0.117c0.201,0.146,0.268,0.405,0.176,0.623l2.258,1.641
			c0.092-0.098,0.199-0.178,0.322-0.234l-0.861-2.652c-0.236,0.018-0.463-0.125-0.539-0.358c-0.09-0.275,0.063-0.571,0.338-0.66
			c0.273-0.089,0.568,0.062,0.658,0.336c0.076,0.234-0.023,0.483-0.223,0.606l0.859,2.651c0.064-0.013,0.131-0.021,0.199-0.021
			c0.066,0,0.137,0.008,0.199,0.021l0.861-2.651c-0.201-0.123-0.301-0.372-0.225-0.606c0.09-0.274,0.387-0.425,0.658-0.336
			c0.275,0.089,0.428,0.385,0.336,0.66c-0.074,0.233-0.301,0.376-0.535,0.358l-0.861,2.652c0.121,0.057,0.229,0.137,0.32,0.234
			l2.256-1.64c-0.09-0.219-0.023-0.478,0.176-0.623c0.234-0.169,0.563-0.118,0.732,0.117c0.168,0.232,0.115,0.56-0.117,0.729
			c-0.199,0.146-0.467,0.128-0.646-0.024l-2.258,1.64c0.063,0.115,0.105,0.241,0.121,0.378h2.791c0.055-0.229,0.262-0.4,0.508-0.4
			c0.289,0,0.525,0.233,0.525,0.523c0,0.288-0.236,0.523-0.525,0.523c-0.246,0-0.451-0.172-0.508-0.4h-2.791
			c-0.016,0.135-0.059,0.261-0.121,0.376l2.258,1.642c0.18-0.153,0.445-0.171,0.646-0.026c0.232,0.17,0.285,0.497,0.117,0.731
			c-0.174,0.233-0.5,0.286-0.732,0.115c-0.201-0.146-0.266-0.404-0.176-0.623l-2.256-1.64c-0.094,0.099-0.199,0.178-0.32,0.234
			l0.859,2.653c0.236-0.018,0.461,0.124,0.537,0.359c0.09,0.274-0.061,0.569-0.336,0.659c-0.273,0.089-0.57-0.063-0.66-0.337
			c-0.074-0.234,0.023-0.483,0.225-0.606l-0.861-2.65C538.66,251.267,538.591,251.274,538.523,251.274z"/>
		
			<radialGradient id="SVGID_8_" cx="179.1719" cy="260.7275" r="14.0256" gradientTransform="matrix(-4.371139e-008 1 -1 -4.371139e-008 799.1882 71.0944)" gradientUnits="userSpaceOnUse">
			<stop  offset="0" style="stop-color:#EA608D"/>
			<stop  offset="1" style="stop-color:#EF8CB0"/>
		</radialGradient>
		<path fill="url(#SVGID_8_)" d="M538.75,250.955c0.004,0,0.008-0.002,0.01-0.003c0.039-0.013,0.074-0.027,0.109-0.046
			c0.066-0.034,0.131-0.076,0.184-0.13c0.059-0.058,0.105-0.125,0.143-0.199c0.051-0.102,0.082-0.214,0.082-0.336
			c0-0.121-0.031-0.234-0.082-0.335c-0.035-0.075-0.084-0.143-0.145-0.2c-0.051-0.052-0.115-0.095-0.18-0.129
			c-0.035-0.019-0.072-0.034-0.111-0.047c-0.002-0.001-0.006-0.002-0.01-0.003c-0.035-0.012-0.074-0.022-0.113-0.027
			c-0.037-0.005-0.074-0.011-0.111-0.011s-0.074,0.006-0.111,0.011c-0.039,0.005-0.078,0.016-0.115,0.027
			c-0.002,0-0.008,0.002-0.01,0.003c-0.037,0.013-0.072,0.027-0.107,0.045c-0.066,0.035-0.131,0.078-0.184,0.131
			c-0.059,0.058-0.107,0.125-0.143,0.199c-0.053,0.102-0.082,0.215-0.082,0.336c0,0.122,0.029,0.234,0.082,0.336
			c0.035,0.074,0.084,0.143,0.141,0.199c0.055,0.054,0.117,0.095,0.186,0.13c0.033,0.019,0.07,0.033,0.107,0.047
			c0.002,0,0.008,0.002,0.01,0.002c0.037,0.014,0.076,0.022,0.115,0.028c0.037,0.005,0.074,0.011,0.111,0.011
			s0.074-0.006,0.111-0.011C538.675,250.978,538.712,250.969,538.75,250.955z"/>
	</g>
	<g>
		
			<radialGradient id="SVGID_9_" cx="121.1685" cy="257.271" r="17.1397" gradientTransform="matrix(-4.371139e-008 1 1 4.371139e-008 205.6681 71.0502)" gradientUnits="userSpaceOnUse">
			<stop  offset="0" style="stop-color:#EA608D"/>
			<stop  offset="1" style="stop-color:#EF8CB0"/>
		</radialGradient>
		<path fill="url(#SVGID_9_)" d="M463.787,209.068l2.078-3.015l3.455,1.217c0,0,2.854-5.608-2.762-11.282
			c7.133,3.588,11.584-0.861,11.584-0.861l-2.227-2.909l2.227-2.909c0,0-4.451-4.447-11.584-0.861
			c5.613-5.673,2.764-11.281,2.764-11.281l-3.455,1.216l-2.08-3.014c0,0-5.605,2.86-4.398,10.749
			c-3.662-7.092-9.877-6.111-9.877-6.111l0.09,3.661l-3.51,1.047c0,0,0.988,6.215,8.865,7.504c-7.877,1.29-8.865,7.505-8.865,7.505
			l3.51,1.046l-0.09,3.663c0,0,6.215,0.979,9.877-6.113C458.179,206.209,463.787,209.068,463.787,209.068z M461.371,193.478
			c-0.084,0-0.164-0.009-0.244-0.024l-1.051,3.235c0.246,0.151,0.365,0.454,0.271,0.74c-0.109,0.335-0.469,0.52-0.807,0.41
			c-0.336-0.109-0.518-0.47-0.41-0.806c0.096-0.287,0.371-0.459,0.658-0.438l1.053-3.239c-0.148-0.069-0.281-0.165-0.393-0.285
			l-2.754,2.001c0.107,0.268,0.029,0.583-0.215,0.76c-0.285,0.208-0.686,0.145-0.893-0.141c-0.207-0.285-0.145-0.686,0.141-0.894
			c0.244-0.177,0.568-0.155,0.789,0.032l2.758-2.003c-0.078-0.14-0.131-0.294-0.15-0.46h-3.406c-0.066,0.281-0.318,0.49-0.619,0.49
			c-0.354,0-0.641-0.288-0.641-0.641c0-0.354,0.287-0.639,0.641-0.639c0.303,0,0.553,0.208,0.619,0.488h3.406
			c0.02-0.166,0.072-0.32,0.15-0.461l-2.758-2.003c-0.221,0.187-0.545,0.208-0.787,0.032c-0.285-0.207-0.35-0.606-0.143-0.893
			c0.207-0.285,0.607-0.349,0.895-0.143c0.242,0.18,0.32,0.496,0.213,0.762l2.756,2.002c0.109-0.119,0.242-0.218,0.391-0.287
			l-1.051-3.237c-0.289,0.021-0.563-0.153-0.658-0.438c-0.107-0.337,0.076-0.697,0.412-0.806c0.334-0.109,0.695,0.074,0.805,0.409
			c0.094,0.287-0.027,0.591-0.271,0.74l1.049,3.236c0.08-0.016,0.16-0.025,0.244-0.025s0.166,0.01,0.244,0.025l1.051-3.236
			c-0.244-0.149-0.365-0.453-0.273-0.74c0.109-0.335,0.471-0.519,0.807-0.409c0.336,0.108,0.52,0.469,0.41,0.806
			c-0.094,0.286-0.369,0.459-0.656,0.438l-1.051,3.237c0.148,0.069,0.279,0.168,0.391,0.287l2.756-2.002
			c-0.111-0.266-0.031-0.582,0.213-0.76c0.285-0.207,0.686-0.145,0.893,0.141c0.209,0.286,0.145,0.685-0.141,0.893
			c-0.244,0.178-0.568,0.156-0.789-0.032l-2.758,2.003c0.078,0.141,0.129,0.295,0.15,0.461h3.406
			c0.066-0.28,0.318-0.488,0.619-0.488c0.354,0,0.641,0.285,0.641,0.639c0,0.353-0.287,0.641-0.641,0.641
			c-0.301,0-0.553-0.209-0.619-0.49h-3.406c-0.021,0.166-0.072,0.32-0.148,0.459l2.756,2.004c0.221-0.186,0.547-0.208,0.789-0.032
			c0.285,0.208,0.35,0.608,0.141,0.894c-0.207,0.286-0.607,0.349-0.893,0.141c-0.244-0.177-0.324-0.492-0.213-0.76l-2.756-2.001
			c-0.109,0.118-0.242,0.216-0.391,0.285l1.051,3.239c0.287-0.021,0.563,0.15,0.656,0.438c0.107,0.336-0.074,0.696-0.412,0.806
			c-0.334,0.109-0.695-0.075-0.805-0.41c-0.092-0.286,0.029-0.59,0.273-0.74l-1.051-3.235
			C461.537,193.469,461.453,193.478,461.371,193.478z"/>
		
			<radialGradient id="SVGID_10_" cx="121.1523" cy="337.8921" r="17.1265" gradientTransform="matrix(-4.371139e-008 1 -1 -4.371139e-008 799.1882 71.0944)" gradientUnits="userSpaceOnUse">
			<stop  offset="0" style="stop-color:#EA608D"/>
			<stop  offset="1" style="stop-color:#EF8CB0"/>
		</radialGradient>
		<path fill="url(#SVGID_10_)" d="M461.646,193.09c0.006-0.002,0.01-0.003,0.014-0.006c0.047-0.014,0.09-0.032,0.133-0.055
			c0.082-0.043,0.16-0.094,0.225-0.158c0.07-0.071,0.127-0.153,0.174-0.244c0.061-0.123,0.1-0.262,0.1-0.41
			c0-0.147-0.039-0.285-0.1-0.408c-0.047-0.092-0.104-0.174-0.176-0.244c-0.063-0.064-0.141-0.116-0.223-0.158
			c-0.043-0.022-0.086-0.041-0.133-0.057c-0.004-0.002-0.008-0.002-0.014-0.004c-0.045-0.014-0.092-0.026-0.139-0.033
			c-0.045-0.006-0.09-0.014-0.137-0.014s-0.094,0.008-0.137,0.014c-0.049,0.008-0.096,0.02-0.141,0.033
			c-0.006,0.001-0.01,0.002-0.014,0.004c-0.047,0.016-0.09,0.033-0.133,0.056c-0.08,0.042-0.158,0.095-0.223,0.159
			c-0.07,0.07-0.129,0.152-0.174,0.242c-0.063,0.125-0.102,0.263-0.102,0.41c0,0.148,0.037,0.287,0.102,0.41
			c0.045,0.091,0.102,0.174,0.172,0.244c0.066,0.064,0.145,0.115,0.225,0.158c0.043,0.022,0.086,0.041,0.133,0.057
			c0.004,0.001,0.008,0.002,0.012,0.004c0.047,0.014,0.092,0.025,0.143,0.032c0.043,0.007,0.09,0.014,0.137,0.014
			s0.092-0.007,0.137-0.014C461.554,193.115,461.601,193.104,461.646,193.09z"/>
	</g>
	
		<radialGradient id="SVGID_11_" cx="268.0415" cy="270.4619" r="12.8187" gradientTransform="matrix(-0.7086 0.7056 0.7056 0.7086 429.5303 -189.2449)" gradientUnits="userSpaceOnUse">
		<stop  offset="0" style="stop-color:#EC7079"/>
		<stop  offset="1" style="stop-color:#F29D9C"/>
	</radialGradient>
	<path fill="url(#SVGID_11_)" d="M430.535,191.903c-5.773,2.135-11.791-2.583-10.506-7.61l2.811-0.119l0.129-2.807
		C428.001,180.104,432.693,186.141,430.535,191.903z"/>
	
		<radialGradient id="SVGID_12_" cx="400.8071" cy="130.3599" r="9.2625" gradientTransform="matrix(0.2644 0.9644 0.9644 -0.2644 75.5339 -146.5242)" gradientUnits="userSpaceOnUse">
		<stop  offset="0" style="stop-color:#EC7079"/>
		<stop  offset="1" style="stop-color:#F29D9C"/>
	</radialGradient>
	<path fill="url(#SVGID_12_)" d="M307.495,205.615c-0.716,4.387-5.825,6.49-8.526,3.891l0.925-1.807l-1.718-1.082
		C299.176,203.004,304.642,202.205,307.495,205.615z"/>
	
		<radialGradient id="SVGID_13_" cx="228.1597" cy="373.7778" r="12.8208" gradientTransform="matrix(-0.9083 0.4182 0.4182 0.9083 544.6422 -247.6097)" gradientUnits="userSpaceOnUse">
		<stop  offset="0" style="stop-color:#EC7079"/>
		<stop  offset="1" style="stop-color:#F29D9C"/>
	</radialGradient>
	<path fill="url(#SVGID_13_)" d="M493.685,187.689c-6.154,0.014-10.178-6.488-7.238-10.766l2.678,0.856l1.088-2.591
		C495.373,175.738,497.697,183.022,493.685,187.689z"/>
	
		<radialGradient id="SVGID_14_" cx="182.8135" cy="259.1895" r="12.8205" gradientTransform="matrix(-0.2265 0.974 0.974 0.2265 195.3615 -30.5499)" gradientUnits="userSpaceOnUse">
		<stop  offset="0" style="stop-color:#EA608D"/>
		<stop  offset="1" style="stop-color:#EF8CB0"/>
	</radialGradient>
	<path fill="url(#SVGID_14_)" d="M406.688,206.479c-3.761,4.87-11.364,4.063-12.94-0.882l2.316-1.591l-1.379-2.447
		C398.282,197.818,405.462,200.447,406.688,206.479z"/>
	
		<radialGradient id="SVGID_15_" cx="-116.1445" cy="688.5991" r="12.8197" gradientTransform="matrix(0.7813 -0.6241 -0.6241 -0.7813 1076.8604 689.884)" gradientUnits="userSpaceOnUse">
		<stop  offset="0" style="stop-color:#EA608D"/>
		<stop  offset="1" style="stop-color:#EF8CB0"/>
	</radialGradient>
	<path fill="url(#SVGID_15_)" d="M556.302,223.989c5.973-1.491,11.438,3.854,9.611,8.711l-2.805-0.188l-0.436,2.775
		C557.533,235.995,553.527,229.482,556.302,223.989z"/>
	
		<radialGradient id="SVGID_16_" cx="67.7085" cy="225.855" r="12.8192" gradientTransform="matrix(0.6887 0.725 0.725 -0.6887 205.5037 320.5878)" gradientUnits="userSpaceOnUse">
		<stop  offset="0" style="stop-color:#ED7890"/>
		<stop  offset="1" style="stop-color:#F3A5B3"/>
	</radialGradient>
	<path fill="url(#SVGID_16_)" d="M416.25,214.037c1.998,5.821-2.858,11.727-7.855,10.324l-0.052-2.812l-2.804-0.195
		C404.395,216.293,410.54,211.745,416.25,214.037z"/>
	
		<radialGradient id="SVGID_17_" cx="-34.1416" cy="144.4966" r="7.5713" gradientTransform="matrix(0.6887 0.725 0.725 -0.6887 205.5037 320.5878)" gradientUnits="userSpaceOnUse">
		<stop  offset="0" style="stop-color:#ED7890"/>
		<stop  offset="1" style="stop-color:#F3A5B3"/>
	</radialGradient>
	<path fill="url(#SVGID_17_)" d="M286.969,196.266c1.181,3.438-1.688,6.927-4.639,6.098l-0.032-1.66l-1.655-0.115
		C279.967,197.598,283.596,194.912,286.969,196.266z"/>
	
		<radialGradient id="SVGID_18_" cx="308.7856" cy="217.8149" r="10.8953" gradientTransform="matrix(-0.5132 0.8583 0.8583 0.5132 356.885 -184.8693)" gradientUnits="userSpaceOnUse">
		<stop  offset="0" style="stop-color:#EC7079"/>
		<stop  offset="1" style="stop-color:#F29D9C"/>
	</radialGradient>
	<path fill="url(#SVGID_18_)" d="M385.525,192.227c-4.309,2.967-10.252,0.34-10.245-4.072l2.289-0.685l-0.479-2.34
		C380.972,183.035,386.1,187.028,385.525,192.227z"/>
	
		<radialGradient id="SVGID_19_" cx="167.7896" cy="156.8262" r="9.2637" gradientTransform="matrix(0.0201 0.9998 0.9998 -0.0201 168.7683 26.7766)" gradientUnits="userSpaceOnUse">
		<stop  offset="0" style="stop-color:#EA608D"/>
		<stop  offset="1" style="stop-color:#EF8CB0"/>
	</radialGradient>
	<path fill="url(#SVGID_19_)" d="M329.179,191.512c-1.77,4.08-7.237,4.867-9.221,1.684l1.341-1.524l-1.401-1.47
		C321.752,186.942,327.248,187.507,329.179,191.512z"/>
	
		<radialGradient id="SVGID_20_" cx="-12.1362" cy="180.2881" r="9.262" gradientTransform="matrix(0.846 0.5332 0.5332 -0.846 265.7804 363.4067)" gradientUnits="userSpaceOnUse">
		<stop  offset="0" style="stop-color:#ED7890"/>
		<stop  offset="1" style="stop-color:#F3A5B3"/>
	</radialGradient>
	<path fill="url(#SVGID_20_)" d="M351.886,204.282c2.434,3.721,0.083,8.72-3.666,8.625l-0.537-1.958l-1.998,0.361
		C343.985,207.969,347.479,203.691,351.886,204.282z"/>
	
		<radialGradient id="SVGID_21_" cx="255.6157" cy="773.1226" r="10.8972" gradientTransform="matrix(-0.4413 -0.8974 -0.8974 0.4413 1365.7804 76.8807)" gradientUnits="userSpaceOnUse">
		<stop  offset="0" style="stop-color:#ED7890"/>
		<stop  offset="1" style="stop-color:#F3A5B3"/>
	</radialGradient>
	<path fill="url(#SVGID_21_)" d="M558.853,188.648c-0.145-5.229,5.293-8.789,8.99-6.385l-0.67,2.293l2.227,0.869
		C569.044,189.822,562.906,191.955,558.853,188.648z"/>
	<g>
		
			<radialGradient id="SVGID_22_" cx="301.1919" cy="107.8179" r="27.1964" gradientTransform="matrix(-4.371139e-008 1 1 4.371139e-008 205.6681 71.0502)" gradientUnits="userSpaceOnUse">
			<stop  offset="0" style="stop-color:#EC7079"/>
			<stop  offset="1" style="stop-color:#F29D9C"/>
		</radialGradient>
		<path fill="url(#SVGID_22_)" d="M314.829,398.978l3.301-4.783l5.482,1.932c0,0,4.527-8.9-4.38-17.904
			c11.314,5.693,18.379-1.363,18.379-1.363l-3.53-4.617l3.53-4.617c0,0-7.063-7.055-18.379-1.365
			c8.907-9.002,4.38-17.902,4.38-17.902l-5.48,1.932l-3.302-4.783c0,0-8.894,4.537-6.979,17.059
			c-5.81-11.256-15.673-9.699-15.673-9.699l0.144,5.811l-5.57,1.66c0,0,1.568,9.859,14.068,11.908
			c-12.5,2.047-14.068,11.908-14.068,11.908l5.57,1.658l-0.144,5.813c0,0,9.864,1.555,15.673-9.699
			C305.936,394.439,314.829,398.978,314.829,398.978z M310.996,374.24c-0.131,0-0.261-0.018-0.387-0.039l-1.668,5.135
			c0.39,0.238,0.582,0.719,0.435,1.174c-0.173,0.531-0.745,0.824-1.279,0.648c-0.53-0.172-0.822-0.744-0.649-1.275
			c0.148-0.455,0.586-0.73,1.042-0.695l1.669-5.139c-0.236-0.109-0.446-0.264-0.622-0.453l-4.371,3.178
			c0.175,0.422,0.048,0.924-0.339,1.203c-0.453,0.33-1.087,0.229-1.416-0.223c-0.33-0.455-0.229-1.088,0.224-1.418
			c0.387-0.279,0.901-0.246,1.25,0.051l4.374-3.178c-0.123-0.223-0.205-0.467-0.236-0.73h-5.406
			c-0.106,0.445-0.504,0.777-0.98,0.777c-0.562,0-1.017-0.455-1.017-1.016c0-0.563,0.455-1.014,1.017-1.014
			c0.477,0,0.874,0.33,0.98,0.773h5.406c0.032-0.262,0.113-0.508,0.238-0.729l-4.374-3.178c-0.351,0.295-0.865,0.328-1.25,0.049
			c-0.452-0.33-0.555-0.963-0.226-1.416c0.329-0.451,0.963-0.555,1.416-0.225c0.387,0.281,0.514,0.783,0.339,1.205l4.371,3.178
			c0.178-0.189,0.386-0.344,0.622-0.455l-1.668-5.137c-0.455,0.035-0.895-0.242-1.042-0.695c-0.173-0.531,0.12-1.104,0.652-1.277
			c0.532-0.174,1.103,0.119,1.275,0.65c0.147,0.453-0.045,0.936-0.433,1.174l1.667,5.137c0.125-0.025,0.255-0.039,0.386-0.039
			c0.132,0,0.263,0.014,0.388,0.039l1.666-5.137c-0.388-0.238-0.58-0.721-0.433-1.174c0.173-0.531,0.745-0.824,1.276-0.65
			c0.534,0.174,0.825,0.746,0.652,1.277c-0.147,0.455-0.586,0.73-1.043,0.695l-1.668,5.137c0.236,0.111,0.446,0.268,0.622,0.455
			l4.371-3.178c-0.175-0.422-0.047-0.924,0.34-1.205c0.453-0.326,1.087-0.229,1.415,0.227c0.329,0.451,0.229,1.086-0.224,1.416
			c-0.386,0.281-0.904,0.246-1.25-0.051l-4.376,3.178c0.125,0.223,0.205,0.469,0.239,0.729h5.406
			c0.106-0.443,0.506-0.773,0.982-0.773c0.559,0,1.014,0.451,1.014,1.014c0,0.561-0.455,1.016-1.014,1.016
			c-0.477,0-0.876-0.332-0.982-0.777h-5.406c-0.034,0.264-0.114,0.51-0.237,0.729l4.374,3.18c0.347-0.297,0.864-0.33,1.25-0.051
			c0.454,0.33,0.554,0.965,0.225,1.418c-0.33,0.453-0.965,0.553-1.416,0.223c-0.388-0.279-0.515-0.781-0.34-1.203l-4.37-3.18
			c-0.177,0.191-0.387,0.346-0.621,0.455l1.667,5.139c0.456-0.035,0.895,0.24,1.041,0.695c0.174,0.531-0.118,1.104-0.651,1.275
			c-0.531,0.176-1.104-0.117-1.275-0.648c-0.147-0.455,0.045-0.936,0.434-1.174l-1.668-5.135
			C311.259,374.224,311.128,374.24,310.996,374.24z"/>
		
			<radialGradient id="SVGID_23_" cx="-1035.6245" cy="55.4063" r="27.1721" gradientTransform="matrix(-4.371139e-008 1 -1 -4.371139e-008 366.2838 1407.9122)" gradientUnits="userSpaceOnUse">
			<stop  offset="0" style="stop-color:#EC7079"/>
			<stop  offset="1" style="stop-color:#F29D9C"/>
		</radialGradient>
		<path fill="url(#SVGID_23_)" d="M311.436,373.623c0.006-0.004,0.013-0.004,0.021-0.006c0.071-0.025,0.142-0.057,0.208-0.09
			c0.131-0.066,0.253-0.15,0.355-0.25c0.113-0.113,0.204-0.246,0.277-0.389c0.097-0.195,0.157-0.416,0.157-0.648
			c0-0.234-0.06-0.453-0.157-0.648c-0.073-0.145-0.165-0.277-0.277-0.389c-0.103-0.104-0.225-0.184-0.354-0.25
			c-0.066-0.035-0.138-0.064-0.211-0.09c-0.006-0.002-0.013-0.004-0.019-0.006c-0.072-0.025-0.146-0.043-0.224-0.055
			c-0.07-0.012-0.142-0.021-0.216-0.021c-0.073,0-0.146,0.01-0.216,0.021c-0.074,0.012-0.15,0.029-0.221,0.055
			c-0.008,0-0.015,0.004-0.022,0.006c-0.071,0.023-0.141,0.055-0.208,0.088c-0.129,0.066-0.25,0.148-0.354,0.252
			c-0.112,0.111-0.206,0.242-0.275,0.387c-0.1,0.197-0.161,0.416-0.161,0.65c0,0.232,0.062,0.453,0.161,0.648
			c0.07,0.143,0.162,0.275,0.274,0.389c0.103,0.1,0.225,0.184,0.354,0.25c0.066,0.033,0.138,0.063,0.209,0.09
			c0.008,0.002,0.013,0.004,0.021,0.006c0.072,0.021,0.146,0.041,0.223,0.053c0.07,0.012,0.143,0.023,0.216,0.023
			c0.074,0,0.146-0.014,0.216-0.023C311.29,373.664,311.363,373.646,311.436,373.623z"/>
	</g>
	<g>
		
			<radialGradient id="SVGID_24_" cx="288.061" cy="194.1489" r="12.8975" gradientTransform="matrix(-4.371139e-008 1 1 4.371139e-008 205.6681 71.0502)" gradientUnits="userSpaceOnUse">
			<stop  offset="0" style="stop-color:#EC7079"/>
			<stop  offset="1" style="stop-color:#F29D9C"/>
		</radialGradient>
		<path fill="url(#SVGID_24_)" d="M400.456,371.791l1.565-2.268l2.6,0.914c0,0,2.146-4.221-2.078-8.488
			c5.366,2.699,8.717-0.648,8.717-0.648l-1.675-2.189l1.675-2.189c0,0-3.349-3.346-8.717-0.645c4.225-4.271,2.078-8.49,2.078-8.49
			l-2.6,0.914l-1.565-2.27c0,0-4.218,2.152-3.31,8.09c-2.756-5.338-7.434-4.6-7.434-4.6l0.067,2.756l-2.641,0.787
			c0,0,0.744,4.678,6.672,5.646c-5.928,0.973-6.672,5.648-6.672,5.648l2.641,0.787l-0.067,2.756c0,0,4.678,0.736,7.434-4.6
			C396.238,369.638,400.456,371.791,400.456,371.791z M398.639,360.06c-0.063,0-0.124-0.008-0.184-0.02l-0.791,2.436
			c0.184,0.113,0.275,0.342,0.205,0.557c-0.082,0.252-0.353,0.391-0.606,0.309c-0.251-0.082-0.389-0.352-0.309-0.605
			c0.071-0.213,0.278-0.346,0.495-0.328l0.793-2.439c-0.114-0.051-0.214-0.125-0.296-0.215l-2.073,1.506
			c0.082,0.201,0.022,0.439-0.162,0.572c-0.215,0.158-0.515,0.109-0.672-0.105c-0.155-0.217-0.107-0.514,0.106-0.672
			c0.185-0.133,0.428-0.115,0.594,0.023l2.073-1.506c-0.059-0.105-0.097-0.223-0.112-0.348h-2.563
			c-0.053,0.209-0.241,0.369-0.467,0.369c-0.267,0-0.481-0.217-0.481-0.482s0.215-0.48,0.481-0.48c0.228,0,0.414,0.158,0.467,0.369
			h2.563c0.016-0.125,0.054-0.242,0.114-0.346l-2.074-1.51c-0.166,0.141-0.41,0.156-0.595,0.021
			c-0.214-0.154-0.262-0.455-0.106-0.67c0.157-0.215,0.457-0.262,0.672-0.105c0.185,0.135,0.244,0.371,0.162,0.572l2.073,1.506
			c0.083-0.09,0.183-0.164,0.296-0.215l-0.793-2.438c-0.217,0.018-0.424-0.115-0.494-0.33c-0.081-0.252,0.057-0.523,0.31-0.605
			c0.252-0.08,0.522,0.057,0.605,0.311c0.069,0.215-0.022,0.443-0.206,0.557l0.791,2.436c0.06-0.012,0.12-0.02,0.184-0.02
			c0.063,0,0.123,0.008,0.184,0.02l0.79-2.436c-0.184-0.113-0.273-0.342-0.205-0.557c0.082-0.252,0.354-0.391,0.604-0.311
			c0.253,0.082,0.393,0.355,0.311,0.605c-0.071,0.217-0.278,0.348-0.494,0.33l-0.792,2.438c0.112,0.053,0.211,0.127,0.295,0.215
			l2.074-1.506c-0.084-0.201-0.024-0.438,0.16-0.572c0.215-0.156,0.517-0.107,0.672,0.107c0.156,0.213,0.108,0.514-0.106,0.67
			c-0.183,0.133-0.429,0.117-0.594-0.021l-2.073,1.508c0.059,0.104,0.097,0.221,0.112,0.346h2.563
			c0.052-0.211,0.24-0.369,0.467-0.369c0.266,0,0.48,0.215,0.48,0.48s-0.215,0.482-0.48,0.482c-0.227,0-0.415-0.16-0.467-0.369
			h-2.563c-0.016,0.125-0.054,0.24-0.112,0.348l2.073,1.506c0.166-0.141,0.409-0.156,0.594-0.023
			c0.215,0.158,0.263,0.457,0.106,0.672c-0.157,0.217-0.458,0.264-0.672,0.105c-0.185-0.133-0.244-0.371-0.16-0.572l-2.074-1.506
			c-0.084,0.09-0.184,0.164-0.295,0.215l0.792,2.439c0.216-0.018,0.424,0.115,0.494,0.33c0.082,0.252-0.058,0.521-0.311,0.604
			c-0.25,0.082-0.522-0.057-0.604-0.309c-0.07-0.215,0.021-0.443,0.205-0.557l-0.79-2.436
			C398.762,360.052,398.701,360.06,398.639,360.06z"/>
		
			<radialGradient id="SVGID_25_" cx="-998.3916" cy="301.6655" r="12.9004" gradientTransform="matrix(-4.371139e-008 1 -1 -4.371139e-008 700.2487 1357.5255)" gradientUnits="userSpaceOnUse">
			<stop  offset="0" style="stop-color:#EC7079"/>
			<stop  offset="1" style="stop-color:#F29D9C"/>
		</radialGradient>
		<path fill="url(#SVGID_25_)" d="M398.847,359.767c0.003-0.002,0.007-0.002,0.01-0.002c0.033-0.012,0.067-0.025,0.098-0.043
			c0.063-0.031,0.12-0.068,0.169-0.119c0.055-0.055,0.098-0.115,0.13-0.184c0.048-0.094,0.077-0.197,0.077-0.309
			c0-0.113-0.029-0.215-0.077-0.309c-0.032-0.066-0.075-0.131-0.13-0.184c-0.049-0.049-0.106-0.088-0.167-0.121
			c-0.032-0.016-0.066-0.031-0.102-0.041c-0.001,0-0.005-0.002-0.008-0.004c-0.034-0.012-0.069-0.02-0.105-0.025
			c-0.034-0.004-0.067-0.01-0.103-0.01c-0.034,0-0.069,0.006-0.104,0.01c-0.035,0.006-0.07,0.016-0.104,0.025
			c-0.004,0.002-0.007,0.004-0.012,0.004c-0.033,0.01-0.067,0.025-0.098,0.041c-0.061,0.033-0.12,0.07-0.168,0.121
			c-0.053,0.051-0.099,0.113-0.131,0.184c-0.048,0.092-0.075,0.195-0.075,0.309c0,0.111,0.027,0.215,0.075,0.309
			c0.032,0.066,0.076,0.129,0.131,0.186c0.048,0.049,0.105,0.086,0.168,0.117c0.03,0.018,0.064,0.031,0.098,0.043
			c0.003,0,0.006,0,0.012,0.002c0.032,0.012,0.068,0.021,0.104,0.025c0.034,0.006,0.069,0.012,0.104,0.012
			c0.035,0,0.068-0.006,0.103-0.012C398.777,359.787,398.813,359.777,398.847,359.767z"/>
	</g>
	<g>
		
			<radialGradient id="SVGID_26_" cx="287.3726" cy="140.4971" r="18.2513" gradientTransform="matrix(-4.371139e-008 1 1 4.371139e-008 205.6681 71.0502)" gradientUnits="userSpaceOnUse">
			<stop  offset="0" style="stop-color:#ED7890"/>
			<stop  offset="1" style="stop-color:#F3A5B3"/>
		</radialGradient>
		<path fill="url(#SVGID_26_)" d="M347.067,376.367l2.214-3.211l3.679,1.297c0,0,3.038-5.973-2.938-12.016
			c7.592,3.818,12.333-0.918,12.333-0.918l-2.369-3.096l2.369-3.1c0,0-4.739-4.734-12.333-0.916
			c5.977-6.041,2.939-12.016,2.939-12.016l-3.678,1.297l-2.216-3.211c0,0-5.969,3.045-4.684,11.447
			c-3.897-7.553-10.518-6.508-10.518-6.508l0.096,3.898l-3.736,1.113c0,0,1.053,6.617,9.44,7.992c-8.39,1.373-9.44,7.99-9.44,7.99
			l3.736,1.115l-0.096,3.896c0,0,6.618,1.041,10.518-6.508C341.099,373.322,347.067,376.367,347.067,376.367z M344.494,359.765
			c-0.089,0-0.175-0.01-0.259-0.025l-1.119,3.443c0.262,0.162,0.391,0.484,0.291,0.789c-0.116,0.357-0.501,0.555-0.857,0.438
			c-0.357-0.115-0.553-0.5-0.438-0.857c0.1-0.305,0.394-0.488,0.7-0.467l1.12-3.447c-0.16-0.072-0.301-0.178-0.419-0.305
			l-2.933,2.131c0.117,0.285,0.032,0.621-0.228,0.811c-0.304,0.221-0.729,0.154-0.95-0.148c-0.221-0.303-0.153-0.73,0.15-0.953
			c0.26-0.188,0.604-0.164,0.839,0.035l2.935-2.135c-0.083-0.146-0.137-0.313-0.157-0.488h-3.629
			c-0.072,0.299-0.339,0.521-0.66,0.521c-0.375,0-0.68-0.307-0.68-0.684s0.305-0.68,0.68-0.68c0.321,0,0.588,0.223,0.66,0.52h3.629
			c0.021-0.176,0.074-0.342,0.158-0.488l-2.936-2.133c-0.234,0.197-0.579,0.221-0.838,0.033c-0.304-0.223-0.371-0.646-0.151-0.951
			c0.221-0.303,0.646-0.371,0.95-0.15c0.26,0.189,0.345,0.527,0.228,0.811l2.933,2.131c0.12-0.127,0.261-0.229,0.419-0.303
			l-1.119-3.449c-0.306,0.025-0.6-0.164-0.7-0.467c-0.115-0.355,0.08-0.742,0.438-0.855c0.358-0.115,0.741,0.078,0.857,0.438
			c0.099,0.305-0.03,0.627-0.291,0.787l1.119,3.445c0.083-0.016,0.169-0.025,0.258-0.025c0.089,0,0.177,0.01,0.26,0.025l1.119-3.445
			c-0.261-0.16-0.389-0.482-0.291-0.787c0.115-0.357,0.499-0.555,0.856-0.438c0.358,0.115,0.556,0.5,0.438,0.855
			c-0.099,0.305-0.393,0.49-0.699,0.467l-1.119,3.449c0.159,0.074,0.299,0.178,0.418,0.303l2.933-2.131
			c-0.118-0.283-0.032-0.619,0.228-0.809c0.304-0.221,0.73-0.154,0.951,0.148c0.221,0.305,0.153,0.73-0.152,0.951
			c-0.259,0.188-0.604,0.166-0.838-0.033l-2.936,2.133c0.083,0.148,0.138,0.313,0.16,0.488h3.628c0.071-0.297,0.339-0.52,0.659-0.52
			c0.377,0,0.681,0.303,0.681,0.68s-0.306,0.684-0.681,0.684c-0.319,0-0.588-0.225-0.659-0.521h-3.628
			c-0.022,0.176-0.076,0.34-0.16,0.488l2.936,2.135c0.233-0.201,0.579-0.223,0.838-0.035c0.306,0.223,0.373,0.648,0.152,0.953
			c-0.223,0.303-0.648,0.369-0.951,0.148c-0.26-0.189-0.344-0.525-0.228-0.811l-2.933-2.131c-0.119,0.127-0.259,0.23-0.418,0.305
			l1.119,3.447c0.307-0.021,0.6,0.162,0.699,0.467c0.118,0.357-0.08,0.742-0.438,0.857c-0.357,0.117-0.741-0.08-0.856-0.438
			c-0.098-0.307,0.03-0.629,0.291-0.789l-1.119-3.445C344.671,359.755,344.583,359.765,344.494,359.765z"/>
		
			<radialGradient id="SVGID_27_" cx="-996.4287" cy="148.9365" r="18.2325" gradientTransform="matrix(-4.371139e-008 1 -1 -4.371139e-008 493.3522 1354.8849)" gradientUnits="userSpaceOnUse">
			<stop  offset="0" style="stop-color:#ED7890"/>
			<stop  offset="1" style="stop-color:#F3A5B3"/>
		</radialGradient>
		<path fill="url(#SVGID_27_)" d="M344.789,359.353c0.005-0.002,0.01-0.004,0.015-0.006c0.048-0.016,0.094-0.035,0.139-0.059
			c0.089-0.045,0.17-0.102,0.239-0.168c0.076-0.078,0.137-0.164,0.186-0.262c0.066-0.131,0.106-0.277,0.106-0.436
			s-0.04-0.305-0.106-0.436c-0.049-0.098-0.109-0.188-0.187-0.262c-0.068-0.068-0.149-0.123-0.236-0.168
			c-0.045-0.023-0.093-0.043-0.143-0.061c-0.003-0.002-0.008-0.002-0.011-0.004c-0.05-0.018-0.099-0.029-0.15-0.035
			c-0.048-0.006-0.096-0.014-0.146-0.014c-0.049,0-0.098,0.008-0.145,0.014c-0.051,0.008-0.1,0.02-0.147,0.035
			c-0.006,0-0.012,0.002-0.016,0.004c-0.048,0.018-0.096,0.037-0.139,0.061c-0.088,0.045-0.171,0.1-0.238,0.168
			c-0.076,0.074-0.138,0.164-0.184,0.26c-0.068,0.133-0.108,0.277-0.108,0.438c0,0.158,0.04,0.305,0.108,0.436
			c0.046,0.098,0.106,0.186,0.184,0.262c0.069,0.066,0.149,0.123,0.236,0.168c0.045,0.021,0.093,0.043,0.143,0.061
			c0.004,0,0.008,0.002,0.012,0.004c0.048,0.016,0.099,0.025,0.149,0.035c0.048,0.006,0.096,0.016,0.146,0.016
			c0.049,0,0.097-0.01,0.145-0.016C344.692,359.378,344.741,359.369,344.789,359.353z"/>
	</g>
	<g>
		
			<radialGradient id="SVGID_28_" cx="256.6216" cy="96.5938" r="14.0419" gradientTransform="matrix(-4.371139e-008 1 1 4.371139e-008 205.6681 71.0502)" gradientUnits="userSpaceOnUse">
			<stop  offset="0" style="stop-color:#EA608D"/>
			<stop  offset="1" style="stop-color:#EF8CB0"/>
		</radialGradient>
		<path fill="url(#SVGID_28_)" d="M302.956,341.476l1.704-2.469l2.83,0.996c0,0,2.339-4.594-2.262-9.242
			c5.843,2.939,9.49-0.707,9.49-0.707l-1.822-2.383l1.822-2.383c0,0-3.647-3.643-9.49-0.705c4.601-4.648,2.264-9.244,2.264-9.244
			l-2.832,0.998l-1.702-2.471c0,0-4.594,2.344-3.605,8.809c-2.999-5.811-8.092-5.008-8.092-5.008l0.073,2.998l-2.875,0.859
			c0,0,0.812,5.092,7.264,6.146c-6.454,1.057-7.264,6.15-7.264,6.15l2.875,0.854l-0.073,3.002c0,0,5.093,0.801,8.092-5.01
			C298.364,339.134,302.956,341.476,302.956,341.476z M300.978,328.705c-0.068,0-0.135-0.008-0.199-0.021l-0.86,2.65
			c0.199,0.125,0.3,0.371,0.224,0.607c-0.09,0.273-0.386,0.426-0.661,0.336c-0.274-0.092-0.425-0.387-0.336-0.66
			c0.077-0.234,0.304-0.377,0.538-0.359l0.862-2.652c-0.122-0.057-0.23-0.137-0.322-0.232l-2.256,1.639
			c0.09,0.219,0.024,0.48-0.175,0.623c-0.234,0.168-0.563,0.119-0.731-0.117c-0.17-0.23-0.118-0.561,0.115-0.729
			c0.2-0.145,0.467-0.127,0.646,0.025l2.258-1.641c-0.063-0.115-0.105-0.242-0.122-0.377h-2.789c-0.055,0.229-0.262,0.4-0.508,0.4
			c-0.29,0-0.524-0.234-0.524-0.525c0-0.289,0.234-0.521,0.524-0.521c0.246,0,0.451,0.172,0.508,0.398h2.789
			c0.017-0.135,0.06-0.262,0.124-0.375l-2.258-1.641c-0.182,0.15-0.447,0.17-0.646,0.023c-0.235-0.17-0.287-0.498-0.117-0.73
			c0.169-0.232,0.497-0.285,0.731-0.117c0.199,0.146,0.265,0.408,0.175,0.625l2.256,1.639c0.092-0.098,0.2-0.178,0.322-0.232
			l-0.86-2.652c-0.236,0.018-0.463-0.125-0.539-0.359c-0.09-0.273,0.061-0.57,0.337-0.658c0.273-0.092,0.57,0.061,0.659,0.336
			c0.076,0.232-0.024,0.482-0.224,0.605l0.859,2.65c0.065-0.014,0.132-0.021,0.2-0.021s0.136,0.008,0.2,0.021l0.86-2.65
			c-0.201-0.123-0.301-0.373-0.225-0.605c0.09-0.275,0.385-0.428,0.659-0.336c0.277,0.088,0.428,0.385,0.337,0.658
			c-0.075,0.234-0.304,0.377-0.538,0.359l-0.86,2.652c0.122,0.057,0.229,0.137,0.32,0.232l2.257-1.639
			c-0.09-0.217-0.023-0.479,0.176-0.625c0.233-0.168,0.561-0.117,0.731,0.117c0.17,0.232,0.118,0.561-0.117,0.73
			c-0.198,0.146-0.467,0.129-0.646-0.023l-2.259,1.641c0.064,0.113,0.106,0.24,0.122,0.375h2.792
			c0.055-0.229,0.262-0.398,0.507-0.398c0.289,0,0.524,0.232,0.524,0.521c0,0.291-0.235,0.525-0.524,0.525
			c-0.245,0-0.452-0.172-0.507-0.4h-2.792c-0.016,0.135-0.058,0.262-0.121,0.375l2.258,1.643c0.181-0.152,0.447-0.17,0.646-0.025
			c0.233,0.17,0.287,0.498,0.117,0.729c-0.171,0.236-0.498,0.285-0.731,0.117c-0.201-0.145-0.266-0.404-0.176-0.623l-2.257-1.639
			c-0.091,0.098-0.198,0.176-0.32,0.232l0.86,2.652c0.234-0.016,0.461,0.125,0.537,0.359c0.092,0.273-0.061,0.568-0.336,0.66
			c-0.274,0.09-0.569-0.063-0.659-0.336c-0.076-0.236,0.023-0.484,0.224-0.607l-0.861-2.65
			C301.113,328.695,301.046,328.705,300.978,328.705z"/>
		
			<radialGradient id="SVGID_29_" cx="-909.1719" cy="24.7197" r="14.0307" gradientTransform="matrix(-4.371139e-008 1 -1 -4.371139e-008 325.6354 1236.8673)" gradientUnits="userSpaceOnUse">
			<stop  offset="0" style="stop-color:#EA608D"/>
			<stop  offset="1" style="stop-color:#EF8CB0"/>
		</radialGradient>
		<path fill="url(#SVGID_29_)" d="M301.204,328.384c0.003,0,0.007,0,0.01-0.002c0.038-0.012,0.075-0.025,0.108-0.045
			c0.067-0.035,0.131-0.078,0.185-0.131c0.058-0.059,0.105-0.125,0.142-0.199c0.051-0.102,0.082-0.215,0.082-0.336
			s-0.031-0.234-0.082-0.336c-0.036-0.074-0.084-0.143-0.142-0.199c-0.054-0.053-0.117-0.096-0.185-0.129
			c-0.033-0.02-0.07-0.035-0.108-0.047c-0.004-0.002-0.007-0.002-0.01-0.004c-0.038-0.012-0.075-0.021-0.115-0.027
			c-0.036-0.006-0.073-0.012-0.112-0.012c-0.036,0-0.074,0.008-0.111,0.012c-0.038,0.006-0.075,0.016-0.113,0.027
			c-0.005,0-0.008,0.002-0.012,0.004c-0.036,0.012-0.073,0.027-0.108,0.047c-0.065,0.033-0.129,0.076-0.183,0.129
			c-0.058,0.059-0.105,0.125-0.142,0.197c-0.053,0.104-0.083,0.217-0.083,0.338c0,0.119,0.03,0.234,0.083,0.336
			c0.036,0.074,0.083,0.145,0.142,0.199c0.054,0.053,0.115,0.094,0.183,0.131c0.035,0.02,0.072,0.031,0.108,0.045
			c0.003,0.002,0.007,0.002,0.01,0.002c0.038,0.014,0.077,0.023,0.115,0.029c0.037,0.006,0.075,0.01,0.112,0.01
			c0.038,0,0.076-0.004,0.113-0.01C301.13,328.408,301.166,328.398,301.204,328.384z"/>
	</g>
	<g>
		
			<radialGradient id="SVGID_30_" cx="314.647" cy="173.7617" r="17.1393" gradientTransform="matrix(-4.371139e-008 1 1 4.371139e-008 205.6681 71.0502)" gradientUnits="userSpaceOnUse">
			<stop  offset="0" style="stop-color:#EA608D"/>
			<stop  offset="1" style="stop-color:#EF8CB0"/>
		</radialGradient>
		<path fill="url(#SVGID_30_)" d="M380.275,402.546l2.081-3.014l3.455,1.217c0,0,2.853-5.609-2.761-11.285
			c7.132,3.588,11.583-0.859,11.583-0.859l-2.226-2.906l2.226-2.912c0,0-4.451-4.447-11.583-0.859
			c5.613-5.674,2.761-11.281,2.761-11.281l-3.453,1.217l-2.081-3.016c0,0-5.606,2.859-4.398,10.75
			c-3.661-7.094-9.877-6.111-9.877-6.111l0.09,3.66l-3.51,1.047c0,0,0.987,6.215,8.867,7.506c-7.878,1.289-8.867,7.504-8.867,7.504
			l3.51,1.047l-0.09,3.662c0,0,6.216,0.979,9.877-6.113C374.671,399.687,380.275,402.546,380.275,402.546z M377.861,386.955
			c-0.083,0-0.164-0.008-0.244-0.023l-1.051,3.234c0.245,0.152,0.366,0.453,0.273,0.74c-0.11,0.336-0.47,0.521-0.806,0.41
			c-0.335-0.109-0.52-0.471-0.411-0.807c0.096-0.285,0.37-0.459,0.657-0.438l1.053-3.236c-0.149-0.068-0.281-0.168-0.393-0.287
			l-2.754,2.002c0.109,0.268,0.029,0.582-0.214,0.76c-0.285,0.209-0.685,0.145-0.893-0.141c-0.207-0.287-0.143-0.686,0.142-0.895
			c0.243-0.176,0.568-0.154,0.789,0.031l2.756-2.002c-0.079-0.141-0.13-0.295-0.149-0.461h-3.406
			c-0.068,0.281-0.319,0.49-0.619,0.49c-0.354,0-0.641-0.287-0.641-0.641s0.286-0.639,0.641-0.639c0.301,0,0.551,0.207,0.619,0.488
			h3.406c0.02-0.166,0.07-0.322,0.15-0.461l-2.757-2.004c-0.221,0.188-0.546,0.209-0.789,0.033
			c-0.285-0.207-0.348-0.605-0.141-0.893s0.606-0.35,0.893-0.143c0.243,0.178,0.322,0.494,0.213,0.76l2.756,2.002
			c0.11-0.119,0.243-0.217,0.391-0.287l-1.051-3.234c-0.288,0.021-0.563-0.154-0.657-0.439c-0.108-0.334,0.075-0.695,0.411-0.805
			c0.335-0.109,0.695,0.074,0.805,0.41c0.094,0.287-0.029,0.59-0.272,0.74l1.05,3.234c0.079-0.016,0.16-0.025,0.243-0.025
			s0.166,0.012,0.245,0.025l1.05-3.234c-0.244-0.15-0.365-0.453-0.272-0.74c0.109-0.336,0.47-0.52,0.806-0.41
			c0.336,0.107,0.519,0.471,0.41,0.805c-0.093,0.287-0.369,0.461-0.656,0.439l-1.052,3.234c0.147,0.07,0.281,0.17,0.393,0.287
			l2.753-2c-0.11-0.268-0.029-0.582,0.215-0.762c0.285-0.205,0.685-0.145,0.892,0.143c0.208,0.285,0.145,0.686-0.141,0.893
			c-0.243,0.178-0.569,0.154-0.789-0.033l-2.757,2.004c0.078,0.141,0.129,0.295,0.15,0.461h3.406
			c0.068-0.279,0.319-0.488,0.62-0.488c0.354,0,0.639,0.285,0.639,0.639s-0.285,0.641-0.639,0.641c-0.301,0-0.552-0.209-0.62-0.49
			h-3.406c-0.021,0.166-0.072,0.32-0.149,0.461l2.756,2.002c0.221-0.186,0.546-0.207,0.789-0.031
			c0.285,0.209,0.349,0.607,0.141,0.895c-0.207,0.285-0.607,0.348-0.892,0.141c-0.246-0.178-0.325-0.492-0.215-0.76l-2.753-2.002
			c-0.111,0.119-0.243,0.219-0.393,0.287l1.052,3.236c0.287-0.021,0.563,0.152,0.655,0.438c0.109,0.336-0.074,0.697-0.411,0.807
			c-0.334,0.109-0.695-0.074-0.804-0.41c-0.093-0.287,0.028-0.588,0.272-0.74l-1.05-3.234
			C378.027,386.947,377.944,386.955,377.861,386.955z"/>
		
			<radialGradient id="SVGID_31_" cx="-1073.8267" cy="243.4341" r="17.1144" gradientTransform="matrix(-4.371139e-008 1 -1 -4.371139e-008 621.2194 1459.5529)" gradientUnits="userSpaceOnUse">
			<stop  offset="0" style="stop-color:#EA608D"/>
			<stop  offset="1" style="stop-color:#EF8CB0"/>
		</radialGradient>
		<path fill="url(#SVGID_31_)" d="M378.139,386.568c0.003,0,0.009-0.004,0.011-0.006c0.047-0.014,0.091-0.031,0.133-0.055
			c0.083-0.043,0.158-0.094,0.225-0.158c0.07-0.072,0.128-0.152,0.173-0.246c0.063-0.123,0.1-0.262,0.1-0.408
			s-0.036-0.285-0.1-0.408c-0.045-0.09-0.103-0.174-0.174-0.244c-0.065-0.063-0.141-0.115-0.224-0.158
			c-0.041-0.021-0.086-0.043-0.133-0.057c-0.004-0.002-0.008-0.002-0.011-0.004c-0.047-0.016-0.093-0.027-0.141-0.033
			c-0.045-0.006-0.09-0.014-0.138-0.014c-0.045,0-0.092,0.008-0.135,0.014c-0.048,0.006-0.095,0.02-0.141,0.033
			c-0.005,0-0.009,0.002-0.013,0.004c-0.047,0.014-0.09,0.033-0.133,0.055c-0.081,0.045-0.158,0.098-0.222,0.16
			c-0.072,0.07-0.13,0.154-0.175,0.242c-0.063,0.125-0.101,0.264-0.101,0.41s0.038,0.285,0.101,0.41
			c0.045,0.092,0.102,0.174,0.173,0.244c0.065,0.064,0.141,0.115,0.224,0.158c0.043,0.021,0.086,0.041,0.133,0.055
			c0.004,0.002,0.007,0.006,0.011,0.006c0.047,0.016,0.093,0.023,0.141,0.031c0.045,0.01,0.092,0.016,0.137,0.016
			c0.048,0,0.094-0.006,0.138-0.016C378.046,386.593,378.092,386.583,378.139,386.568z"/>
	</g>
	
		<radialGradient id="SVGID_32_" cx="-36.6646" cy="231.1797" r="12.8221" gradientTransform="matrix(0.7086 -0.7056 -0.7056 -0.7086 599.3911 524.3231)" gradientUnits="userSpaceOnUse">
		<stop  offset="0" style="stop-color:#EC7079"/>
		<stop  offset="1" style="stop-color:#F29D9C"/>
	</radialGradient>
	<path fill="url(#SVGID_32_)" d="M410.188,386.011c5.773-2.135,11.79,2.58,10.506,7.609l-2.81,0.119l-0.129,2.807
		C412.723,397.81,408.032,391.773,410.188,386.011z"/>
	
		<radialGradient id="SVGID_33_" cx="216.3706" cy="376.0698" r="9.2595" gradientTransform="matrix(-0.2644 -0.9644 -0.9644 0.2644 953.386 481.6024)" gradientUnits="userSpaceOnUse">
		<stop  offset="0" style="stop-color:#EC7079"/>
		<stop  offset="1" style="stop-color:#F29D9C"/>
	</radialGradient>
	<path fill="url(#SVGID_33_)" d="M533.23,372.298c0.715-4.389,5.822-6.49,8.525-3.891l-0.926,1.807l1.717,1.082
		C541.55,374.91,536.083,375.707,533.23,372.298z"/>
	
		<radialGradient id="SVGID_34_" cx="-44.3633" cy="231.8965" r="12.8192" gradientTransform="matrix(0.9083 -0.4182 -0.4182 -0.9083 484.2816 582.6849)" gradientUnits="userSpaceOnUse">
		<stop  offset="0" style="stop-color:#EC7079"/>
		<stop  offset="1" style="stop-color:#F29D9C"/>
	</radialGradient>
	<path fill="url(#SVGID_34_)" d="M347.04,390.224c6.154-0.014,10.177,6.488,7.238,10.766l-2.677-0.855l-1.09,2.59
		C345.352,402.175,343.027,394.89,347.04,390.224z"/>
	
		<radialGradient id="SVGID_35_" cx="-96.3389" cy="387.4956" r="12.8191" gradientTransform="matrix(0.2265 -0.974 -0.974 -0.2265 833.5574 365.629)" gradientUnits="userSpaceOnUse">
		<stop  offset="0" style="stop-color:#EA608D"/>
		<stop  offset="1" style="stop-color:#EF8CB0"/>
	</radialGradient>
	<path fill="url(#SVGID_35_)" d="M434.037,371.435c3.76-4.871,11.363-4.063,12.941,0.883l-2.318,1.59l1.379,2.449
		C442.441,380.095,435.261,377.464,434.037,371.435z"/>
	
		<radialGradient id="SVGID_36_" cx="182.4688" cy="760.8794" r="12.8186" gradientTransform="matrix(-0.7813 0.6241 0.6241 0.7813 -47.9385 -354.8068)" gradientUnits="userSpaceOnUse">
		<stop  offset="0" style="stop-color:#EA608D"/>
		<stop  offset="1" style="stop-color:#EF8CB0"/>
	</radialGradient>
	<path fill="url(#SVGID_36_)" d="M284.422,353.925c-5.97,1.49-11.438-3.854-9.611-8.713l2.805,0.189l0.435-2.777
		C283.19,341.919,287.196,348.431,284.422,353.925z"/>
	
		<radialGradient id="SVGID_37_" cx="21.2603" cy="529.5591" r="12.8193" gradientTransform="matrix(-0.6887 -0.725 -0.725 0.6887 823.4163 14.4908)" gradientUnits="userSpaceOnUse">
		<stop  offset="0" style="stop-color:#ED7890"/>
		<stop  offset="1" style="stop-color:#F3A5B3"/>
	</radialGradient>
	<path fill="url(#SVGID_37_)" d="M424.474,363.876c-1.998-5.822,2.857-11.727,7.855-10.324l0.051,2.813l2.805,0.193
		C436.33,361.621,430.183,366.169,424.474,363.876z"/>
	
		<radialGradient id="SVGID_38_" cx="-80.5894" cy="448.1997" r="7.5723" gradientTransform="matrix(-0.6887 -0.725 -0.725 0.6887 823.4163 14.4908)" gradientUnits="userSpaceOnUse">
		<stop  offset="0" style="stop-color:#ED7890"/>
		<stop  offset="1" style="stop-color:#F3A5B3"/>
	</radialGradient>
	<path fill="url(#SVGID_38_)" d="M553.755,381.648c-1.182-3.439,1.688-6.928,4.639-6.098l0.031,1.658l1.656,0.117
		C560.757,380.314,557.126,383.001,553.755,381.648z"/>
	
		<radialGradient id="SVGID_39_" cx="3.7939" cy="254.7197" r="10.8962" gradientTransform="matrix(0.5132 -0.8583 -0.8583 -0.5132 672.0359 519.9464)" gradientUnits="userSpaceOnUse">
		<stop  offset="0" style="stop-color:#EC7079"/>
		<stop  offset="1" style="stop-color:#F29D9C"/>
	</radialGradient>
	<path fill="url(#SVGID_39_)" d="M455.199,385.685c4.309-2.963,10.252-0.338,10.246,4.074l-2.291,0.688l0.48,2.338
		C459.751,394.876,454.625,390.884,455.199,385.685z"/>
	
		<radialGradient id="SVGID_40_" cx="-71.2129" cy="349.8638" r="9.2595" gradientTransform="matrix(-0.0201 -0.9998 -0.9998 0.0201 860.1531 308.3025)" gradientUnits="userSpaceOnUse">
		<stop  offset="0" style="stop-color:#EA608D"/>
		<stop  offset="1" style="stop-color:#EF8CB0"/>
	</radialGradient>
	<path fill="url(#SVGID_40_)" d="M511.546,386.402c1.77-4.08,7.236-4.867,9.219-1.686l-1.34,1.525l1.4,1.469
		C518.972,390.97,513.478,390.406,511.546,386.402z"/>
	
		<radialGradient id="SVGID_41_" cx="17.5996" cy="486.0688" r="9.2609" gradientTransform="matrix(-0.846 -0.5332 -0.5332 0.846 763.1406 -28.3271)" gradientUnits="userSpaceOnUse">
		<stop  offset="0" style="stop-color:#ED7890"/>
		<stop  offset="1" style="stop-color:#F3A5B3"/>
	</radialGradient>
	<path fill="url(#SVGID_41_)" d="M488.837,373.63c-2.434-3.721-0.082-8.719,3.666-8.625l0.537,1.959l1.998-0.359
		C496.738,369.945,493.244,374.22,488.837,373.63z"/>
	
		<radialGradient id="SVGID_42_" cx="390.478" cy="497.0884" r="10.8964" gradientTransform="matrix(0.4413 0.8974 0.8974 -0.4413 -336.8595 258.1969)" gradientUnits="userSpaceOnUse">
		<stop  offset="0" style="stop-color:#ED7890"/>
		<stop  offset="1" style="stop-color:#F3A5B3"/>
	</radialGradient>
	<path fill="url(#SVGID_42_)" d="M281.87,389.265c0.146,5.23-5.291,8.789-8.99,6.387l0.67-2.295l-2.225-0.867
		C271.68,388.089,277.818,385.958,281.87,389.265z"/>
</g>
</svg>
